<svg xmlns="http://www.w3.org/2001/svg" width="23" height="23" viewBox="0 0 23 23" fill="none">
    <path d="M91.199 10.6992H90.1141V18.2256L85.361 13.3877L84.4505 14.3145L89.1195 19.0736H73.1038L77.6244 14.3145L76.6945 13.4008L72.0318 18.3111V6.92611L80.059 15.0573C80.301 15.3021 80.6284 15.4396 80.9696 15.4396C81.3108 15.4396 81.6382 15.3021 81.8802 15.0573L86.1812 10.6992H84.3536L80.9696 14.1239L72.8778 5.92697H82.4033L83.1459 4.6123H72.0318C71.6893 4.6123 71.3608 4.75081 71.1185 4.99736C70.8763 5.24391 70.7402 5.5783 70.7402 5.92697V19.0736C70.7402 19.4222 70.8763 19.7566 71.1185 20.0032C71.3608 20.2497 71.6893 20.3882 72.0318 20.3882H90.1141C90.4566 20.3882 90.7851 20.2497 91.0274 20.0032C91.2696 19.7566 91.4057 19.4222 91.4057 19.0736V10.686L91.199 10.6992Z" fill="#FFFDF5"/>
</svg>